<?xml version="1.0" standalone="no"?>
<!DOCTYPE svg PUBLIC "-//W3C//DTD SVG 20010904//EN"
 "http://www.w3.org/TR/2001/REC-SVG-20010904/DTD/svg10.dtd">
<svg version="1.0" xmlns="http://www.w3.org/2000/svg"
 width="500.000000pt" height="403.000000pt" viewBox="0 0 500.000000 403.000000"
 preserveAspectRatio="xMidYMid meet">

<defs>
    <linearGradient id="gradient" gradientTransform="scale(10) translate(40,130)" gradientUnits="userSpaceOnUse" >
        <stop offset="0%" stop-color="rgba(255, 0, 0, 1)"/>
        <stop offset="10%" stop-color="rgba(255, 154, 0, 1)"/>
        <stop offset="20%" stop-color="rgba(208, 222, 33, 1)"/>
        <stop offset="30%" stop-color="rgba(79, 220, 74, 1)"/>
        <stop offset="40%" stop-color="rgba(63, 218, 216, 1)"/>
        <stop offset="50%" stop-color="rgba(47, 201, 226, 1)"/>
        <stop offset="60%" stop-color="rgba(28, 127, 238, 1)"/>
        <stop offset="70%" stop-color="rgba(95, 21, 242, 1)"/>
        <stop offset="80%" stop-color="rgba(186, 12, 248, 1)"/>
        <stop offset="90%" stop-color="rgba(251, 7, 217, 1)"/>
        <stop offset="100%" stop-color="rgba(255, 0, 0, 1)"/>
    </linearGradient>
</defs>

<g transform="translate(0.000000,403.000000) scale(0.100000,-0.100000)"
fill="url(#gradient)" stroke="url(#gradient)">
<path d="M2415 3884 c-269 -39 -365 -60 -536 -120 -299 -104 -568 -274 -809
-514 -176 -175 -291 -325 -356 -464 -60 -132 -124 -375 -105 -404 3 -5 24 -19
47 -30 l40 -21 18 90 c38 202 113 376 223 524 84 112 309 344 415 427 231 183
486 315 747 389 540 151 1196 103 1915 -141 49 -16 91 -28 93 -26 13 12 -357
132 -572 185 -336 83 -485 102 -815 106 -151 2 -288 1 -305 -1z"/>
<path d="M2287 3069 c-77 -18 -152 -89 -185 -174 -63 -164 -144 -525 -176
-780 -53 -428 -5 -738 156 -1013 44 -75 255 -286 343 -343 126 -82 145 -87 45
-11 -76 56 -187 173 -239 251 -248 366 -278 902 -92 1635 58 230 80 284 133
332 51 46 95 64 155 64 l48 1 -35 18 c-45 24 -105 32 -153 20z"/>
<path d="M3970 2811 c-50 -16 -106 -50 -136 -83 -82 -88 -101 -160 -114 -428
-34 -691 -127 -1078 -338 -1395 -160 -241 -298 -359 -613 -526 -182 -97 -239
-134 -239 -157 0 -9 16 -26 36 -38 l37 -21 36 38 c24 26 98 71 219 134 233
121 312 175 442 305 335 334 489 793 530 1585 5 110 12 229 14 265 8 157 135
281 289 283 l60 0 -39 20 c-42 21 -144 32 -184 18z"/>
<path d="M810 2217 c-19 -6 -60 -36 -90 -67 -45 -44 -60 -68 -78 -123 -29 -89
-28 -139 8 -306 72 -339 203 -672 346 -882 119 -175 313 -359 462 -438 35 -19
26 -6 -18 23 -63 42 -177 154 -245 241 -194 249 -328 567 -429 1022 -43 192
-46 266 -12 339 45 97 138 163 232 165 l49 1 -40 19 c-45 21 -129 24 -185 6z"/>
<path d="M1971 520 c48 -28 205 -62 353 -75 190 -18 185 -17 166 -5 -29 19
-86 29 -245 45 -88 8 -186 22 -218 30 -66 17 -79 18 -56 5z"/>
</g>
</svg>
