<svg width="500" height="403" xmlns="http://www.w3.org/2000/svg"><defs><linearGradient id="a" gradientTransform="matrix(10 0 0 10 400 1300)" gradientUnits="userSpaceOnUse"><stop offset="0" stop-color="rgba(255, 0, 0, 1)"/><stop offset=".1" stop-color="rgba(255, 154, 0, 1)"/><stop offset=".2" stop-color="rgba(208, 222, 33, 1)"/><stop offset=".3" stop-color="rgba(79, 220, 74, 1)"/><stop offset=".4" stop-color="rgba(63, 218, 216, 1)"/><stop offset=".5" stop-color="rgba(47, 201, 226, 1)"/><stop offset=".6" stop-color="rgba(28, 127, 238, 1)"/><stop offset=".7" stop-color="rgba(95, 21, 242, 1)"/><stop offset=".8" stop-color="rgba(186, 12, 248, 1)"/><stop offset=".9" stop-color="rgba(251, 7, 217, 1)"/><stop offset="1" stop-color="rgba(255, 0, 0, 1)"/></linearGradient><linearGradient id="b" gradientTransform="matrix(10 0 0 10 400 1300)" gradientUnits="userSpaceOnUse"><stop offset="0" stop-color="rgba(255, 0, 0, 1)"/><stop offset=".1" stop-color="rgba(255, 154, 0, 1)"/><stop offset=".2" stop-color="rgba(208, 222, 33, 1)"/><stop offset=".3" stop-color="rgba(79, 220, 74, 1)"/><stop offset=".4" stop-color="rgba(63, 218, 216, 1)"/><stop offset=".5" stop-color="rgba(47, 201, 226, 1)"/><stop offset=".6" stop-color="rgba(28, 127, 238, 1)"/><stop offset=".7" stop-color="rgba(95, 21, 242, 1)"/><stop offset=".8" stop-color="rgba(186, 12, 248, 1)"/><stop offset=".9" stop-color="rgba(251, 7, 217, 1)"/><stop offset="1" stop-color="rgba(255, 0, 0, 1)"/></linearGradient><linearGradient id="c" gradientTransform="matrix(10 0 0 10 400 1300)" gradientUnits="userSpaceOnUse"><stop offset="0" stop-color="rgba(255, 0, 0, 1)"/><stop offset=".1" stop-color="rgba(255, 154, 0, 1)"/><stop offset=".2" stop-color="rgba(208, 222, 33, 1)"/><stop offset=".3" stop-color="rgba(79, 220, 74, 1)"/><stop offset=".4" stop-color="rgba(63, 218, 216, 1)"/><stop offset=".5" stop-color="rgba(47, 201, 226, 1)"/><stop offset=".6" stop-color="rgba(28, 127, 238, 1)"/><stop offset=".7" stop-color="rgba(95, 21, 242, 1)"/><stop offset=".8" stop-color="rgba(186, 12, 248, 1)"/><stop offset=".9" stop-color="rgba(251, 7, 217, 1)"/><stop offset="1" stop-color="rgba(255, 0, 0, 1)"/></linearGradient><linearGradient id="d" gradientTransform="matrix(10 0 0 10 400 1300)" gradientUnits="userSpaceOnUse"><stop offset="0" stop-color="rgba(255, 0, 0, 1)"/><stop offset=".1" stop-color="rgba(255, 154, 0, 1)"/><stop offset=".2" stop-color="rgba(208, 222, 33, 1)"/><stop offset=".3" stop-color="rgba(79, 220, 74, 1)"/><stop offset=".4" stop-color="rgba(63, 218, 216, 1)"/><stop offset=".5" stop-color="rgba(47, 201, 226, 1)"/><stop offset=".6" stop-color="rgba(28, 127, 238, 1)"/><stop offset=".7" stop-color="rgba(95, 21, 242, 1)"/><stop offset=".8" stop-color="rgba(186, 12, 248, 1)"/><stop offset=".9" stop-color="rgba(251, 7, 217, 1)"/><stop offset="1" stop-color="rgba(255, 0, 0, 1)"/></linearGradient></defs><g transform="matrix(.1 0 0 -.1 0 403)" fill="url(#a)" stroke="url(#a)"><path d="M2415 3884c-269-39-365-60-536-120-299-104-568-274-809-514-176-175-291-325-356-464-60-132-124-375-105-404 3-5 24-19 47-30l40-21 18 90c38 202 113 376 223 524 84 112 309 344 415 427 231 183 486 315 747 389 540 151 1196 103 1915-141 49-16 91-28 93-26 13 12-357 132-572 185-336 83-485 102-815 106-151 2-288 1-305-1z"/><path d="M2287 3069c-77-18-152-89-185-174-63-164-144-525-176-780-53-428-5-738 156-1013 44-75 255-286 343-343 126-82 145-87 45-11-76 56-187 173-239 251-248 366-278 902-92 1635 58 230 80 284 133 332 51 46 95 64 155 64l48 1-35 18c-45 24-105 32-153 20zM3970 2811c-50-16-106-50-136-83-82-88-101-160-114-428-34-691-127-1078-338-1395-160-241-298-359-613-526-182-97-239-134-239-157 0-9 16-26 36-38l37-21 36 38c24 26 98 71 219 134 233 121 312 175 442 305 335 334 489 793 530 1585 5 110 12 229 14 265 8 157 135 281 289 283h60l-39 20c-42 21-144 32-184 18zM810 2217c-19-6-60-36-90-67-45-44-60-68-78-123-29-89-28-139 8-306 72-339 203-672 346-882 119-175 313-359 462-438 35-19 26-6-18 23-63 42-177 154-245 241-194 249-328 567-429 1022-43 192-46 266-12 339 45 97 138 163 232 165l49 1-40 19c-45 21-129 24-185 6zM1971 520c48-28 205-62 353-75 190-18 185-17 166-5-29 19-86 29-245 45-88 8-186 22-218 30-66 17-79 18-56 5z"/></g><g transform="matrix(.1 0 0 -.1 0 403)" fill="url(#b)" stroke="url(#b)"><path d="M2415 3884c-269-39-365-60-536-120-299-104-568-274-809-514-176-175-291-325-356-464-60-132-124-375-105-404 3-5 24-19 47-30l40-21 18 90c38 202 113 376 223 524 84 112 309 344 415 427 231 183 486 315 747 389 540 151 1196 103 1915-141 49-16 91-28 93-26 13 12-357 132-572 185-336 83-485 102-815 106-151 2-288 1-305-1z"/><path d="M2287 3069c-77-18-152-89-185-174-63-164-144-525-176-780-53-428-5-738 156-1013 44-75 255-286 343-343 126-82 145-87 45-11-76 56-187 173-239 251-248 366-278 902-92 1635 58 230 80 284 133 332 51 46 95 64 155 64l48 1-35 18c-45 24-105 32-153 20zM3970 2811c-50-16-106-50-136-83-82-88-101-160-114-428-34-691-127-1078-338-1395-160-241-298-359-613-526-182-97-239-134-239-157 0-9 16-26 36-38l37-21 36 38c24 26 98 71 219 134 233 121 312 175 442 305 335 334 489 793 530 1585 5 110 12 229 14 265 8 157 135 281 289 283h60l-39 20c-42 21-144 32-184 18zM810 2217c-19-6-60-36-90-67-45-44-60-68-78-123-29-89-28-139 8-306 72-339 203-672 346-882 119-175 313-359 462-438 35-19 26-6-18 23-63 42-177 154-245 241-194 249-328 567-429 1022-43 192-46 266-12 339 45 97 138 163 232 165l49 1-40 19c-45 21-129 24-185 6zM1971 520c48-28 205-62 353-75 190-18 185-17 166-5-29 19-86 29-245 45-88 8-186 22-218 30-66 17-79 18-56 5z"/></g><g transform="matrix(.1 0 0 -.1 5.704 406.476)" fill="url(#c)" stroke="url(#c)"><path d="M2415 3884c-269-39-365-60-536-120-299-104-568-274-809-514-176-175-291-325-356-464-60-132-124-375-105-404 3-5 24-19 47-30l40-21 18 90c38 202 113 376 223 524 84 112 309 344 415 427 231 183 486 315 747 389 540 151 1196 103 1915-141 49-16 91-28 93-26 13 12-357 132-572 185-336 83-485 102-815 106-151 2-288 1-305-1z"/><path d="M2287 3069c-77-18-152-89-185-174-63-164-144-525-176-780-53-428-5-738 156-1013 44-75 255-286 343-343 126-82 145-87 45-11-76 56-187 173-239 251-248 366-278 902-92 1635 58 230 80 284 133 332 51 46 95 64 155 64l48 1-35 18c-45 24-105 32-153 20zM3970 2811c-50-16-106-50-136-83-82-88-101-160-114-428-34-691-127-1078-338-1395-160-241-298-359-613-526-182-97-239-134-239-157 0-9 16-26 36-38l37-21 36 38c24 26 98 71 219 134 233 121 312 175 442 305 335 334 489 793 530 1585 5 110 12 229 14 265 8 157 135 281 289 283h60l-39 20c-42 21-144 32-184 18zM810 2217c-19-6-60-36-90-67-45-44-60-68-78-123-29-89-28-139 8-306 72-339 203-672 346-882 119-175 313-359 462-438 35-19 26-6-18 23-63 42-177 154-245 241-194 249-328 567-429 1022-43 192-46 266-12 339 45 97 138 163 232 165l49 1-40 19c-45 21-129 24-185 6zM1971 520c48-28 205-62 353-75 190-18 185-17 166-5-29 19-86 29-245 45-88 8-186 22-218 30-66 17-79 18-56 5z"/></g><g transform="matrix(.1 0 0 -.1 9.252 408.494)" fill="url(#d)" stroke="url(#d)"><path d="M2415 3884c-269-39-365-60-536-120-299-104-568-274-809-514-176-175-291-325-356-464-60-132-124-375-105-404 3-5 24-19 47-30l40-21 18 90c38 202 113 376 223 524 84 112 309 344 415 427 231 183 486 315 747 389 540 151 1196 103 1915-141 49-16 91-28 93-26 13 12-357 132-572 185-336 83-485 102-815 106-151 2-288 1-305-1z"/><path d="M2287 3069c-77-18-152-89-185-174-63-164-144-525-176-780-53-428-5-738 156-1013 44-75 255-286 343-343 126-82 145-87 45-11-76 56-187 173-239 251-248 366-278 902-92 1635 58 230 80 284 133 332 51 46 95 64 155 64l48 1-35 18c-45 24-105 32-153 20zM3970 2811c-50-16-106-50-136-83-82-88-101-160-114-428-34-691-127-1078-338-1395-160-241-298-359-613-526-182-97-239-134-239-157 0-9 16-26 36-38l37-21 36 38c24 26 98 71 219 134 233 121 312 175 442 305 335 334 489 793 530 1585 5 110 12 229 14 265 8 157 135 281 289 283h60l-39 20c-42 21-144 32-184 18zM810 2217c-19-6-60-36-90-67-45-44-60-68-78-123-29-89-28-139 8-306 72-339 203-672 346-882 119-175 313-359 462-438 35-19 26-6-18 23-63 42-177 154-245 241-194 249-328 567-429 1022-43 192-46 266-12 339 45 97 138 163 232 165l49 1-40 19c-45 21-129 24-185 6zM1971 520c48-28 205-62 353-75 190-18 185-17 166-5-29 19-86 29-245 45-88 8-186 22-218 30-66 17-79 18-56 5z"/></g></svg>